<mxfile host="Electron" agent="Mozilla/5.0 (Windows NT 10.0; Win64; x64) AppleWebKit/537.36 (KHTML, like Gecko) draw.io/28.2.5 Chrome/138.0.7204.251 Electron/37.6.1 Safari/537.36" version="28.2.5">
  <diagram name="Página-1" id="MhR6LIbeBXJ6FwU9siTV">
    <mxGraphModel dx="872" dy="537" grid="1" gridSize="10" guides="1" tooltips="1" connect="1" arrows="1" fold="1" page="1" pageScale="1" pageWidth="827" pageHeight="1169" math="0" shadow="0">
      <root>
        <mxCell id="0" />
        <mxCell id="1" parent="0" />
        <mxCell id="TYLPwQYVXZ8k5S_HxzH0-26" style="edgeStyle=orthogonalEdgeStyle;rounded=0;orthogonalLoop=1;jettySize=auto;html=1;exitX=0.5;exitY=1;exitDx=0;exitDy=0;entryX=0.5;entryY=0;entryDx=0;entryDy=0;startArrow=ERmany;startFill=0;endArrow=ERmany;endFill=0;" parent="1" source="TYLPwQYVXZ8k5S_HxzH0-1" target="TYLPwQYVXZ8k5S_HxzH0-5" edge="1">
          <mxGeometry relative="1" as="geometry" />
        </mxCell>
        <mxCell id="TYLPwQYVXZ8k5S_HxzH0-28" style="edgeStyle=orthogonalEdgeStyle;rounded=0;orthogonalLoop=1;jettySize=auto;html=1;exitX=1;exitY=0.5;exitDx=0;exitDy=0;entryX=0;entryY=0.5;entryDx=0;entryDy=0;startArrow=ERmany;startFill=0;endArrow=ERmany;endFill=0;" parent="1" source="TYLPwQYVXZ8k5S_HxzH0-2" target="TYLPwQYVXZ8k5S_HxzH0-9" edge="1">
          <mxGeometry relative="1" as="geometry" />
        </mxCell>
        <mxCell id="6YkJ23YXNfFnZv_M_re8-12" style="edgeStyle=orthogonalEdgeStyle;rounded=0;orthogonalLoop=1;jettySize=auto;html=1;exitX=0.25;exitY=0;exitDx=0;exitDy=0;entryX=0;entryY=0.5;entryDx=0;entryDy=0;fontFamily=Helvetica;fontSize=12;fontColor=default;fontStyle=1;horizontal=1;endArrow=ERmany;endFill=0;startArrow=ERmany;startFill=0;" parent="1" source="TYLPwQYVXZ8k5S_HxzH0-1" target="6YkJ23YXNfFnZv_M_re8-5" edge="1">
          <mxGeometry relative="1" as="geometry" />
        </mxCell>
        <mxCell id="6YkJ23YXNfFnZv_M_re8-14" style="edgeStyle=orthogonalEdgeStyle;rounded=0;orthogonalLoop=1;jettySize=auto;html=1;exitX=0.75;exitY=0;exitDx=0;exitDy=0;entryX=0;entryY=0.5;entryDx=0;entryDy=0;fontFamily=Helvetica;fontSize=12;fontColor=default;fontStyle=1;horizontal=1;endArrow=ERmany;endFill=0;startArrow=ERmany;startFill=0;" parent="1" source="TYLPwQYVXZ8k5S_HxzH0-1" target="6YkJ23YXNfFnZv_M_re8-2" edge="1">
          <mxGeometry relative="1" as="geometry" />
        </mxCell>
        <mxCell id="TYLPwQYVXZ8k5S_HxzH0-1" value="Dueño" style="swimlane;fontStyle=1;align=center;verticalAlign=top;childLayout=stackLayout;horizontal=1;startSize=26;horizontalStack=0;resizeParent=1;resizeParentMax=0;resizeLast=0;collapsible=1;marginBottom=0;whiteSpace=wrap;html=1;fillColor=#b1ddf0;strokeColor=#10739e;" parent="1" vertex="1">
          <mxGeometry x="220" y="257" width="120" height="88" as="geometry" />
        </mxCell>
        <mxCell id="TYLPwQYVXZ8k5S_HxzH0-2" value="&lt;div&gt;Nombre&lt;/div&gt;&lt;div&gt;Teléfono&lt;/div&gt;&lt;div&gt;Correo&lt;/div&gt;" style="text;align=left;verticalAlign=top;spacingLeft=4;spacingRight=4;overflow=hidden;rotatable=0;points=[[0,0.5],[1,0.5]];portConstraint=eastwest;whiteSpace=wrap;html=1;" parent="TYLPwQYVXZ8k5S_HxzH0-1" vertex="1">
          <mxGeometry y="26" width="120" height="54" as="geometry" />
        </mxCell>
        <mxCell id="TYLPwQYVXZ8k5S_HxzH0-3" value="" style="line;strokeWidth=1;align=left;verticalAlign=middle;spacingTop=-1;spacingLeft=3;spacingRight=3;rotatable=0;labelPosition=right;points=[];portConstraint=eastwest;" parent="TYLPwQYVXZ8k5S_HxzH0-1" vertex="1">
          <mxGeometry y="80" width="120" height="8" as="geometry" />
        </mxCell>
        <mxCell id="TYLPwQYVXZ8k5S_HxzH0-29" style="edgeStyle=orthogonalEdgeStyle;rounded=0;orthogonalLoop=1;jettySize=auto;html=1;exitX=1;exitY=0.5;exitDx=0;exitDy=0;entryX=0.5;entryY=1;entryDx=0;entryDy=0;startArrow=ERmany;startFill=0;endArrow=ERmany;endFill=0;" parent="1" source="TYLPwQYVXZ8k5S_HxzH0-6" target="TYLPwQYVXZ8k5S_HxzH0-8" edge="1">
          <mxGeometry relative="1" as="geometry" />
        </mxCell>
        <mxCell id="TYLPwQYVXZ8k5S_HxzH0-5" value="Mascota" style="swimlane;fontStyle=1;align=center;verticalAlign=top;childLayout=stackLayout;horizontal=1;startSize=26;horizontalStack=0;resizeParent=1;resizeParentMax=0;resizeLast=0;collapsible=1;marginBottom=0;whiteSpace=wrap;html=1;fillColor=#b1ddf0;strokeColor=#10739e;" parent="1" vertex="1">
          <mxGeometry x="220" y="390" width="120" height="158" as="geometry" />
        </mxCell>
        <mxCell id="TYLPwQYVXZ8k5S_HxzH0-6" value="&lt;div&gt;Nombre&lt;/div&gt;&lt;div&gt;Especie&lt;/div&gt;&lt;div&gt;Raza&lt;/div&gt;&lt;div&gt;Color&lt;/div&gt;&lt;div&gt;Sexo&lt;/div&gt;&lt;div&gt;Imagen&lt;/div&gt;&lt;div&gt;Estado&lt;/div&gt;&lt;div&gt;Nro. Microchip&lt;/div&gt;" style="text;align=left;verticalAlign=top;spacingLeft=4;spacingRight=4;overflow=hidden;rotatable=0;points=[[0,0.5],[1,0.5]];portConstraint=eastwest;whiteSpace=wrap;html=1;" parent="TYLPwQYVXZ8k5S_HxzH0-5" vertex="1">
          <mxGeometry y="26" width="120" height="124" as="geometry" />
        </mxCell>
        <mxCell id="TYLPwQYVXZ8k5S_HxzH0-7" value="" style="line;strokeWidth=1;align=left;verticalAlign=middle;spacingTop=-1;spacingLeft=3;spacingRight=3;rotatable=0;labelPosition=right;points=[];portConstraint=eastwest;" parent="TYLPwQYVXZ8k5S_HxzH0-5" vertex="1">
          <mxGeometry y="150" width="120" height="8" as="geometry" />
        </mxCell>
        <mxCell id="TYLPwQYVXZ8k5S_HxzH0-8" value="Reporte" style="swimlane;fontStyle=1;align=center;verticalAlign=top;childLayout=stackLayout;horizontal=1;startSize=26;horizontalStack=0;resizeParent=1;resizeParentMax=0;resizeLast=0;collapsible=1;marginBottom=0;whiteSpace=wrap;html=1;swimlaneLine=1;fillColor=#b1ddf0;strokeColor=#10739e;" parent="1" vertex="1">
          <mxGeometry x="420" y="257" width="120" height="88" as="geometry" />
        </mxCell>
        <mxCell id="TYLPwQYVXZ8k5S_HxzH0-9" value="&lt;div&gt;Tipo&lt;/div&gt;&lt;div&gt;Timestamp&lt;/div&gt;&lt;div&gt;Ubicación&lt;/div&gt;" style="text;align=left;verticalAlign=top;spacingLeft=4;spacingRight=4;overflow=hidden;rotatable=0;points=[[0,0.5],[1,0.5]];portConstraint=eastwest;whiteSpace=wrap;html=1;" parent="TYLPwQYVXZ8k5S_HxzH0-8" vertex="1">
          <mxGeometry y="26" width="120" height="54" as="geometry" />
        </mxCell>
        <mxCell id="TYLPwQYVXZ8k5S_HxzH0-10" value="" style="line;strokeWidth=1;align=left;verticalAlign=middle;spacingTop=-1;spacingLeft=3;spacingRight=3;rotatable=0;labelPosition=right;points=[];portConstraint=eastwest;" parent="TYLPwQYVXZ8k5S_HxzH0-8" vertex="1">
          <mxGeometry y="80" width="120" height="8" as="geometry" />
        </mxCell>
        <mxCell id="6YkJ23YXNfFnZv_M_re8-13" style="edgeStyle=orthogonalEdgeStyle;rounded=0;orthogonalLoop=1;jettySize=auto;html=1;exitX=0.75;exitY=0;exitDx=0;exitDy=0;entryX=1;entryY=0.5;entryDx=0;entryDy=0;fontFamily=Helvetica;fontSize=12;fontColor=default;fontStyle=1;horizontal=1;endArrow=ERmany;endFill=0;startArrow=ERmany;startFill=0;" parent="1" source="TYLPwQYVXZ8k5S_HxzH0-18" target="6YkJ23YXNfFnZv_M_re8-5" edge="1">
          <mxGeometry relative="1" as="geometry" />
        </mxCell>
        <mxCell id="6YkJ23YXNfFnZv_M_re8-16" style="edgeStyle=orthogonalEdgeStyle;rounded=0;orthogonalLoop=1;jettySize=auto;html=1;exitX=0.25;exitY=0;exitDx=0;exitDy=0;entryX=1;entryY=0.5;entryDx=0;entryDy=0;fontFamily=Helvetica;fontSize=12;fontColor=default;fontStyle=1;horizontal=1;endArrow=ERmany;endFill=0;startArrow=ERmany;startFill=0;" parent="1" source="TYLPwQYVXZ8k5S_HxzH0-18" target="6YkJ23YXNfFnZv_M_re8-2" edge="1">
          <mxGeometry relative="1" as="geometry" />
        </mxCell>
        <mxCell id="TYLPwQYVXZ8k5S_HxzH0-18" value="Reportero" style="swimlane;fontStyle=1;align=center;verticalAlign=top;childLayout=stackLayout;horizontal=1;startSize=26;horizontalStack=0;resizeParent=1;resizeParentMax=0;resizeLast=0;collapsible=1;marginBottom=0;whiteSpace=wrap;html=1;fillColor=#b1ddf0;strokeColor=#10739e;" parent="1" vertex="1">
          <mxGeometry x="620" y="271" width="120" height="60" as="geometry" />
        </mxCell>
        <mxCell id="TYLPwQYVXZ8k5S_HxzH0-19" value="[campo]" style="text;align=left;verticalAlign=top;spacingLeft=4;spacingRight=4;overflow=hidden;rotatable=0;points=[[0,0.5],[1,0.5]];portConstraint=eastwest;whiteSpace=wrap;html=1;" parent="TYLPwQYVXZ8k5S_HxzH0-18" vertex="1">
          <mxGeometry y="26" width="120" height="26" as="geometry" />
        </mxCell>
        <mxCell id="TYLPwQYVXZ8k5S_HxzH0-20" value="" style="line;strokeWidth=1;align=left;verticalAlign=middle;spacingTop=-1;spacingLeft=3;spacingRight=3;rotatable=0;labelPosition=right;points=[];portConstraint=eastwest;" parent="TYLPwQYVXZ8k5S_HxzH0-18" vertex="1">
          <mxGeometry y="52" width="120" height="8" as="geometry" />
        </mxCell>
        <mxCell id="TYLPwQYVXZ8k5S_HxzH0-27" style="edgeStyle=orthogonalEdgeStyle;rounded=0;orthogonalLoop=1;jettySize=auto;html=1;exitX=0;exitY=0.5;exitDx=0;exitDy=0;entryX=1;entryY=0.5;entryDx=0;entryDy=0;startArrow=ERmany;startFill=0;endArrow=ERmany;endFill=0;" parent="1" source="TYLPwQYVXZ8k5S_HxzH0-19" target="TYLPwQYVXZ8k5S_HxzH0-9" edge="1">
          <mxGeometry relative="1" as="geometry" />
        </mxCell>
        <mxCell id="6YkJ23YXNfFnZv_M_re8-1" value="Centros de Ayuda" style="swimlane;fontStyle=1;align=center;verticalAlign=top;childLayout=stackLayout;horizontal=1;startSize=26;horizontalStack=0;resizeParent=1;resizeParentMax=0;resizeLast=0;collapsible=1;marginBottom=0;whiteSpace=wrap;html=1;fillColor=#b1ddf0;strokeColor=#10739e;" parent="1" vertex="1">
          <mxGeometry x="420" y="108" width="120" height="88" as="geometry">
            <mxRectangle x="560" y="200" width="140" height="30" as="alternateBounds" />
          </mxGeometry>
        </mxCell>
        <mxCell id="6YkJ23YXNfFnZv_M_re8-2" value="&lt;div&gt;Nombre&lt;/div&gt;&lt;div&gt;Ubicación&lt;/div&gt;" style="text;align=left;verticalAlign=top;spacingLeft=4;spacingRight=4;overflow=hidden;rotatable=0;points=[[0,0.5],[1,0.5]];portConstraint=eastwest;whiteSpace=wrap;html=1;" parent="6YkJ23YXNfFnZv_M_re8-1" vertex="1">
          <mxGeometry y="26" width="120" height="54" as="geometry" />
        </mxCell>
        <mxCell id="6YkJ23YXNfFnZv_M_re8-3" value="" style="line;strokeWidth=1;align=left;verticalAlign=middle;spacingTop=-1;spacingLeft=3;spacingRight=3;rotatable=0;labelPosition=right;points=[];portConstraint=eastwest;" parent="6YkJ23YXNfFnZv_M_re8-1" vertex="1">
          <mxGeometry y="80" width="120" height="8" as="geometry" />
        </mxCell>
        <mxCell id="6YkJ23YXNfFnZv_M_re8-4" value="Fuentes de Noticias" style="swimlane;fontStyle=1;align=center;verticalAlign=top;childLayout=stackLayout;horizontal=1;startSize=26;horizontalStack=0;resizeParent=1;resizeParentMax=0;resizeLast=0;collapsible=1;marginBottom=0;whiteSpace=wrap;html=1;fillColor=#b1ddf0;strokeColor=#10739e;" parent="1" vertex="1">
          <mxGeometry x="420" y="40" width="120" height="58" as="geometry" />
        </mxCell>
        <mxCell id="6YkJ23YXNfFnZv_M_re8-5" value="[campo]" style="text;align=left;verticalAlign=top;spacingLeft=4;spacingRight=4;overflow=hidden;rotatable=0;points=[[0,0.5],[1,0.5]];portConstraint=eastwest;whiteSpace=wrap;html=1;" parent="6YkJ23YXNfFnZv_M_re8-4" vertex="1">
          <mxGeometry y="26" width="120" height="24" as="geometry" />
        </mxCell>
        <mxCell id="6YkJ23YXNfFnZv_M_re8-6" value="" style="line;strokeWidth=1;align=left;verticalAlign=middle;spacingTop=-1;spacingLeft=3;spacingRight=3;rotatable=0;labelPosition=right;points=[];portConstraint=eastwest;" parent="6YkJ23YXNfFnZv_M_re8-4" vertex="1">
          <mxGeometry y="50" width="120" height="8" as="geometry" />
        </mxCell>
        <mxCell id="6YkJ23YXNfFnZv_M_re8-11" style="edgeStyle=orthogonalEdgeStyle;rounded=0;orthogonalLoop=1;jettySize=auto;html=1;exitX=0.5;exitY=1;exitDx=0;exitDy=0;entryX=0;entryY=0.5;entryDx=0;entryDy=0;fontFamily=Helvetica;fontSize=12;fontColor=default;fontStyle=1;horizontal=1;startArrow=none;startFill=0;endArrow=none;endFill=0;" parent="1" source="6YkJ23YXNfFnZv_M_re8-7" target="TYLPwQYVXZ8k5S_HxzH0-6" edge="1">
          <mxGeometry relative="1" as="geometry" />
        </mxCell>
        <mxCell id="6YkJ23YXNfFnZv_M_re8-7" value="Avisos" style="swimlane;fontStyle=1;align=center;verticalAlign=top;childLayout=stackLayout;horizontal=1;startSize=26;horizontalStack=0;resizeParent=1;resizeParentMax=0;resizeLast=0;collapsible=1;marginBottom=0;whiteSpace=wrap;html=1;fillColor=#b1ddf0;strokeColor=#10739e;" parent="1" vertex="1">
          <mxGeometry x="20" y="247" width="120" height="108" as="geometry">
            <mxRectangle x="560" y="200" width="140" height="30" as="alternateBounds" />
          </mxGeometry>
        </mxCell>
        <mxCell id="6YkJ23YXNfFnZv_M_re8-8" value="&lt;div&gt;Mascota&lt;/div&gt;&lt;div&gt;Dueño&lt;/div&gt;&lt;div&gt;Contacto&lt;/div&gt;&lt;div&gt;Ubicación&lt;/div&gt;" style="text;align=left;verticalAlign=top;spacingLeft=4;spacingRight=4;overflow=hidden;rotatable=0;points=[[0,0.5],[1,0.5]];portConstraint=eastwest;whiteSpace=wrap;html=1;" parent="6YkJ23YXNfFnZv_M_re8-7" vertex="1">
          <mxGeometry y="26" width="120" height="74" as="geometry" />
        </mxCell>
        <mxCell id="6YkJ23YXNfFnZv_M_re8-9" value="" style="line;strokeWidth=1;align=left;verticalAlign=middle;spacingTop=-1;spacingLeft=3;spacingRight=3;rotatable=0;labelPosition=right;points=[];portConstraint=eastwest;" parent="6YkJ23YXNfFnZv_M_re8-7" vertex="1">
          <mxGeometry y="100" width="120" height="8" as="geometry" />
        </mxCell>
        <mxCell id="6YkJ23YXNfFnZv_M_re8-10" style="edgeStyle=orthogonalEdgeStyle;rounded=0;orthogonalLoop=1;jettySize=auto;html=1;exitX=0;exitY=0.5;exitDx=0;exitDy=0;entryX=1;entryY=0.5;entryDx=0;entryDy=0;fontFamily=Helvetica;fontSize=12;fontColor=default;fontStyle=1;horizontal=1;startArrow=none;startFill=0;endArrow=ERmany;endFill=0;" parent="1" source="TYLPwQYVXZ8k5S_HxzH0-2" target="6YkJ23YXNfFnZv_M_re8-8" edge="1">
          <mxGeometry relative="1" as="geometry" />
        </mxCell>
        <mxCell id="6YkJ23YXNfFnZv_M_re8-17" value="&lt;div align=&quot;right&quot;&gt;&amp;lt; da noticias a&lt;/div&gt;" style="text;html=1;align=right;verticalAlign=middle;whiteSpace=wrap;rounded=0;fontFamily=Helvetica;fontSize=12;fontColor=default;fontStyle=1;horizontal=1;" parent="1" vertex="1">
          <mxGeometry x="300" y="59" width="110" height="20" as="geometry" />
        </mxCell>
        <mxCell id="6YkJ23YXNfFnZv_M_re8-18" value="&lt;div align=&quot;left&quot;&gt;da noticias a &amp;gt;&lt;/div&gt;" style="text;html=1;align=left;verticalAlign=middle;whiteSpace=wrap;rounded=0;fontFamily=Helvetica;fontSize=12;fontColor=default;fontStyle=1;horizontal=1;" parent="1" vertex="1">
          <mxGeometry x="540" y="59" width="110" height="20" as="geometry" />
        </mxCell>
        <mxCell id="6YkJ23YXNfFnZv_M_re8-19" value="lee noticias de &amp;gt;" style="text;html=1;align=center;verticalAlign=middle;whiteSpace=wrap;rounded=0;fontFamily=Helvetica;fontSize=12;fontColor=default;fontStyle=1;horizontal=1;rotation=-90;" parent="1" vertex="1">
          <mxGeometry x="180" y="190" width="110" height="20" as="geometry" />
        </mxCell>
        <mxCell id="6YkJ23YXNfFnZv_M_re8-20" value="&lt;div align=&quot;right&quot;&gt;&amp;lt; ofrece&lt;/div&gt;&lt;div align=&quot;right&quot;&gt;servicios a&lt;/div&gt;" style="text;html=1;align=right;verticalAlign=middle;whiteSpace=wrap;rounded=0;fontFamily=Helvetica;fontSize=12;fontColor=default;fontStyle=1;horizontal=1;" parent="1" vertex="1">
          <mxGeometry x="330" y="170" width="90" height="10" as="geometry" />
        </mxCell>
        <mxCell id="6YkJ23YXNfFnZv_M_re8-21" value="&lt;div align=&quot;left&quot;&gt;usa&lt;/div&gt;&lt;div align=&quot;left&quot;&gt;servicios de &amp;gt;&lt;/div&gt;" style="text;html=1;align=left;verticalAlign=middle;whiteSpace=wrap;rounded=0;fontFamily=Helvetica;fontSize=12;fontColor=default;fontStyle=1;horizontal=1;rotation=-90;" parent="1" vertex="1">
          <mxGeometry x="246" y="202" width="90" height="12" as="geometry" />
        </mxCell>
        <mxCell id="6YkJ23YXNfFnZv_M_re8-22" value="&lt;div align=&quot;left&quot;&gt;&amp;lt; ofrece&lt;/div&gt;&lt;div align=&quot;left&quot;&gt;servicios a&lt;/div&gt;" style="text;html=1;align=left;verticalAlign=middle;whiteSpace=wrap;rounded=0;fontFamily=Helvetica;fontSize=12;fontColor=default;fontStyle=1;horizontal=1;" parent="1" vertex="1">
          <mxGeometry x="540" y="170" width="90" height="10" as="geometry" />
        </mxCell>
        <mxCell id="6YkJ23YXNfFnZv_M_re8-23" value="&lt;div align=&quot;left&quot;&gt;usa servicios&lt;/div&gt;&lt;div align=&quot;left&quot;&gt;de &amp;gt;&lt;/div&gt;" style="text;html=1;align=left;verticalAlign=middle;whiteSpace=wrap;rounded=0;fontFamily=Helvetica;fontSize=12;fontColor=default;fontStyle=1;horizontal=1;rotation=-90;" parent="1" vertex="1">
          <mxGeometry x="620" y="218" width="90" height="12" as="geometry" />
        </mxCell>
        <mxCell id="6YkJ23YXNfFnZv_M_re8-24" value="lee noticias de &amp;gt;" style="text;html=1;align=center;verticalAlign=middle;whiteSpace=wrap;rounded=0;fontFamily=Helvetica;fontSize=12;fontColor=default;fontStyle=1;horizontal=1;rotation=-90;" parent="1" vertex="1">
          <mxGeometry x="664" y="210" width="110" height="20" as="geometry" />
        </mxCell>
        <mxCell id="6YkJ23YXNfFnZv_M_re8-25" value="&lt;div align=&quot;left&quot;&gt;recibe &amp;gt;&lt;/div&gt;" style="text;html=1;align=left;verticalAlign=middle;whiteSpace=wrap;rounded=0;fontFamily=Helvetica;fontSize=12;fontColor=default;fontStyle=1;horizontal=1;" parent="1" vertex="1">
          <mxGeometry x="340" y="291" width="80" height="20" as="geometry" />
        </mxCell>
        <mxCell id="6YkJ23YXNfFnZv_M_re8-26" value="&amp;lt; genera" style="text;html=1;align=right;verticalAlign=middle;whiteSpace=wrap;rounded=0;fontFamily=Helvetica;fontSize=12;fontColor=default;fontStyle=1;horizontal=1;" parent="1" vertex="1">
          <mxGeometry x="540" y="291" width="80" height="20" as="geometry" />
        </mxCell>
        <mxCell id="6YkJ23YXNfFnZv_M_re8-27" value="&amp;lt; genera" style="text;html=1;align=right;verticalAlign=middle;whiteSpace=wrap;rounded=0;fontFamily=Helvetica;fontSize=12;fontColor=default;fontStyle=1;horizontal=1;" parent="1" vertex="1">
          <mxGeometry x="160" y="291" width="60" height="20" as="geometry" />
        </mxCell>
        <mxCell id="6YkJ23YXNfFnZv_M_re8-30" value="&amp;lt; indica hallazgo de" style="text;html=1;align=right;verticalAlign=middle;whiteSpace=wrap;rounded=0;fontFamily=Helvetica;fontSize=12;fontColor=default;fontStyle=1;horizontal=1;rotation=-90;" parent="1" vertex="1">
          <mxGeometry x="430" y="401" width="130" height="20" as="geometry" />
        </mxCell>
        <mxCell id="6YkJ23YXNfFnZv_M_re8-31" value="&amp;lt; indica extravío de" style="text;html=1;align=right;verticalAlign=middle;whiteSpace=wrap;rounded=0;fontFamily=Helvetica;fontSize=12;fontColor=default;fontStyle=1;horizontal=1;rotation=-90;" parent="1" vertex="1">
          <mxGeometry x="-5" y="421" width="145" height="20" as="geometry" />
        </mxCell>
        <mxCell id="gzHi_gdDBQ5Tveslu1xc-2" value="&amp;lt; induce, al perderse" style="text;html=1;align=right;verticalAlign=middle;whiteSpace=wrap;rounded=0;fontFamily=Helvetica;fontSize=12;fontColor=default;fontStyle=1;horizontal=1;" vertex="1" parent="1">
          <mxGeometry x="80" y="459" width="140" height="20" as="geometry" />
        </mxCell>
        <mxCell id="gzHi_gdDBQ5Tveslu1xc-3" value="induce, al encontrar &amp;gt;" style="text;html=1;align=left;verticalAlign=middle;whiteSpace=wrap;rounded=0;fontFamily=Helvetica;fontSize=12;fontColor=default;fontStyle=1;horizontal=1;" vertex="1" parent="1">
          <mxGeometry x="340" y="459" width="140" height="20" as="geometry" />
        </mxCell>
      </root>
    </mxGraphModel>
  </diagram>
</mxfile>
